<svg xmlns="http://www.w3.org/2000/svg" viewBox="0 0 760 340" width="760" height="340" role="img" aria-label="The sentence 'I love AI' is split into the tokens 'I', ' love', ' AI', and each token is looked up in a vocabulary to become a numeric ID: 101, 2531, 412.">
  <style>text{font-family:ui-sans-serif,system-ui,-apple-system,'Segoe UI',Roboto,Helvetica,Arial,sans-serif}.mono{font-family:ui-monospace,'SF Mono',Menlo,Consolas,monospace}</style>
  <defs>
    <filter id="card" x="-3%" y="-3%" width="106%" height="112%"><feDropShadow dx="0" dy="2" stdDeviation="4" flood-color="#0f172a" flood-opacity="0.08"/></filter>
    <marker id="ah" markerWidth="9" markerHeight="9" refX="7" refY="3" orient="auto"><path d="M0,0 L7,3 L0,6 Z" fill="#94a3b8"/></marker>
  </defs>
  <rect x="8" y="8" width="744" height="324" rx="16" fill="#ffffff" stroke="#e5e7eb" filter="url(#card)"/>

  <!-- stage labels -->
  <text x="40" y="64" font-size="13" font-weight="700" fill="#64748b">TEXT</text>
  <text x="40" y="170" font-size="13" font-weight="700" fill="#64748b">TOKENS</text>
  <text x="40" y="284" font-size="13" font-weight="700" fill="#64748b">TOKEN IDs</text>

  <!-- raw sentence -->
  <rect x="250" y="40" width="260" height="44" rx="10" fill="#f8fafc" stroke="#cbd5e1"/>
  <text x="380" y="68" text-anchor="middle" font-size="19" class="mono" fill="#1e293b">"I love AI"</text>

  <!-- split arrows -->
  <path d="M340,86 C320,104 312,108 312,120" fill="none" stroke="#94a3b8" stroke-width="2" marker-end="url(#ah)"/>
  <path d="M384,86 L384,120" fill="none" stroke="#94a3b8" stroke-width="2" marker-end="url(#ah)"/>
  <path d="M428,86 C448,104 456,108 456,120" fill="none" stroke="#94a3b8" stroke-width="2" marker-end="url(#ah)"/>

  <!-- token pills -->
  <g>
    <rect x="252" y="126" width="120" height="48" rx="24" fill="#eef2ff" stroke="#4f46e5" stroke-width="1.5"/>
    <text x="312" y="156" text-anchor="middle" font-size="18" class="mono" fill="#3730a3">"I"</text>
  </g>
  <g>
    <rect x="384" y="126" width="120" height="48" rx="24" fill="#ecfdf5" stroke="#059669" stroke-width="1.5"/>
    <text x="444" y="156" text-anchor="middle" font-size="18" class="mono" fill="#065f46">"·love"</text>
  </g>
  <g>
    <rect x="516" y="126" width="120" height="48" rx="24" fill="#fffbeb" stroke="#d97706" stroke-width="1.5"/>
    <text x="576" y="156" text-anchor="middle" font-size="18" class="mono" fill="#92400e">"·AI"</text>
  </g>

  <!-- lookup arrows -->
  <line x1="312" y1="176" x2="312" y2="232" stroke="#94a3b8" stroke-width="2" marker-end="url(#ah)"/>
  <line x1="444" y1="176" x2="444" y2="232" stroke="#94a3b8" stroke-width="2" marker-end="url(#ah)"/>
  <line x1="576" y1="176" x2="576" y2="232" stroke="#94a3b8" stroke-width="2" marker-end="url(#ah)"/>
  <text x="300" y="208" text-anchor="end" font-size="12.5" fill="#94a3b8" font-style="italic">look up each token in the vocabulary →</text>

  <!-- id chips -->
  <rect x="266" y="238" width="92" height="44" rx="10" fill="#312e81"/>
  <text x="312" y="266" text-anchor="middle" font-size="18" class="mono" font-weight="700" fill="#ffffff">101</text>
  <rect x="398" y="238" width="92" height="44" rx="10" fill="#065f46"/>
  <text x="444" y="266" text-anchor="middle" font-size="18" class="mono" font-weight="700" fill="#ffffff">2531</text>
  <rect x="530" y="238" width="92" height="44" rx="10" fill="#92400e"/>
  <text x="576" y="266" text-anchor="middle" font-size="18" class="mono" font-weight="700" fill="#ffffff">412</text>

  <text x="438" y="312" text-anchor="middle" font-size="13" fill="#64748b">The model never sees letters — only these integers. (· marks a leading space.)</text>
</svg>
